<?xml version="1.0" encoding="UTF-8"?>
<svg version="1.1" xmlns="http://www.w3.org/2000/svg" width="275" height="183">
<path d="M0 0 C90.75 0 181.5 0 275 0 C275 60.39 275 120.78 275 183 C184.25 183 93.5 183 0 183 C0 122.61 0 62.22 0 0 Z " fill="#7F7F7F" transform="translate(0,0)"/>
<path d="M0 0 C15.84 0 31.68 0 48 0 C48.99 2.31 49.98 4.62 51 7 C52.89432683 9.85045394 53.92018336 9.98262432 57.35546875 10.73046875 C58.62003906 10.88128906 59.88460937 11.03210938 61.1875 11.1875 C62.45980469 11.34605469 63.73210937 11.50460938 65.04296875 11.66796875 C66.50669922 11.83232422 66.50669922 11.83232422 68 12 C68.33 9.69 68.66 7.38 69 5 C69.495 6.485 69.495 6.485 70 8 C72.31 8 74.62 8 77 8 C77.33 7.34 77.66 6.68 78 6 C79 7 79 7 79.0625 9.5625 C79.041875 10.366875 79.02125 11.17125 79 12 C81.25225066 11.7711617 83.50184817 11.51610777 85.75 11.25 C87.00296875 11.11078125 88.2559375 10.9715625 89.546875 10.828125 C93.42559071 9.89793526 94.62650161 9.14328165 97 6 C97.99 4.02 98.98 2.04 100 0 C115.84 0 131.68 0 148 0 C145.20565195 2.09576104 142.50189123 3.9632816 139.5625 5.8125 C134.10145256 9.44122231 129.78053637 13.47136664 128 20 C127.79534294 21.72144651 127.61511062 23.44589028 127.453125 25.171875 C127.32405762 26.52684082 127.32405762 26.52684082 127.19238281 27.90917969 C127.12889648 28.59915039 127.06541016 29.28912109 127 30 C126.04915527 30.02187378 126.04915527 30.02187378 125.07910156 30.04418945 C101.51117286 30.04085172 101.51117286 30.04085172 81.21875 40.66796875 C78.0970839 44.13393626 75.88396908 47.70873709 74 52 C72.27807298 49.76149488 70.72083211 47.54136704 69.25 45.125 C63.39284875 36.99006771 56.1016813 33.55916612 46.40234375 31.4296875 C41.32310901 30.78822272 36.23839042 30.629567 31.125 30.4375 C30.05507812 30.39431641 28.98515625 30.35113281 27.8828125 30.30664062 C25.25532246 30.20107183 22.62774578 30.09896209 20 30 C19.94593994 29.24944336 19.89187988 28.49888672 19.83618164 27.72558594 C19.75746826 26.73848633 19.67875488 25.75138672 19.59765625 24.734375 C19.52297119 23.75694336 19.44828613 22.77951172 19.37133789 21.77246094 C18.44629386 14.86595205 14.29126591 10.89800106 9.10546875 6.578125 C6.19852987 4.39926914 3.22054786 2.67736868 0 1 C0 0.67 0 0.34 0 0 Z " fill="#000000" transform="translate(64,65)"/>
</svg>
